<svg width="55" height="56" viewBox="0 0 55 56" fill="none" xmlns="http://www.w3.org/2000/svg">
<path d="M18.043 20.061H25.2815L29.1918 31.4769H18.043V20.061Z" fill="#FFF282"/>
<mask id="mask0" mask-type="alpha" maskUnits="userSpaceOnUse" x="0" y="0" width="55" height="56">
<path d="M0.325542 49.1511L4.4018 48.5867L21.7651 0.952877H33.4843L50.7301 48.5867L54.8062 49.1511V55.7356H35.3657V49.1511L39.3244 48.4738L36.8159 40.9488H18.316L15.8075 48.4738L19.7662 49.1511V55.7356H0.325542V49.1511ZM21.0204 32.8594H34.1115L27.6836 13.5574H27.4483L21.0204 32.8594Z" fill="#CCCCCC"/>
</mask>
<g mask="url(#mask0)">
<path d="M53.719 -2.77069H-1.28145V20.061H53.719V-2.77069Z" fill="#FFF282"/>
<path d="M55.2055 41.4658H0.20504V77.1404H55.2055V41.4658Z" fill="#FFF282"/>
<path d="M26.2094 16.9429L-22.2755 2.26399L-33.9153 37.6934L14.5696 52.3723L26.2094 16.9429Z" fill="#FFF282"/>
<path d="M40.9558 53.5284L89.4407 38.8494L77.5682 2.71192L28.4485 15.7801L40.9558 53.5284Z" fill="#FFF282"/>
</g>
</svg>
